{"title":"Club Dread Uncut (2004) - DVDRip - MP3 - ENG","uid":4398018,"size":734051674,"categoryP":"video","categoryS":"movies","magnet":"?xt=urn:btih:f926a129a69f03649c7a9c52518b78a91d9b05f0&amp;dn=Club+Dread+Uncut+%282004%29+-+DVDRip+-+MP3+-+ENG&amp;tr=udp%3A%2F%2Ftracker.openbittorrent.com%3A80&amp;tr=udp%3A%2F%2Fopen.demonii.com%3A1337&amp;tr=udp%3A%2F%2Ftracker.coppersurfer.tk%3A6969&amp;tr=udp%3A%2F%2Fexodus.desync.com%3A6969","seeders":11,"leechers":1,"uploader":"206andy206","files":-1,"time":1221530382,"description":"IMDB: http://www.imdb.com/title/tt0331953\nUser Rating: 5.4/10 (9,841 votes)\nRelease Date: 2 July 2004 (UK)\nGenre: Comedy | Thriller\n\nPlot: \nWhen a serial killer interrupts the fun at the swanky Coconut Pete's Coconut Beach Resort -- a hedonistic island paradise for swingers --- it's up to the club's staff to stop the violence ... or at least hide it!\n\nCast:\nElena Lyons\t        ... \tStacy \nDan Montgomery Jr.\t... \tRolo  \nTanja Reichert\t        ... \tKellie\nNat Faxon\t        ... \tManny\nMichael Weaver   \t... \tRoy  \nKevin Heffernan\t        ... \tLars \nMichael Yurchak\t        ... \tBurke\nJordan Ladd\t        ... \tPenelope\nBrittany Daniel  \t... \tJenny\nRichard Perello  \t... \tCliff\nSteve Lemme        \t... \tJuan\nJay Chandrasekhar\t... \tPutman\nPaul Soter        \t... \tDave\nErik Stolhanske\t        ... \tSam\nLindsay Price   \t... \tYu\n\n\n\nGeneral\nComplete name                    : Club Dread Uncut.avi\nFormat                           : AVI\nSource                           : PAL DVD\nFile size                        : 700 MiB\nDuration                         : 1h 53mn\nOveral bit rate                  : 865 Kbps\nIAS1                             : English\n\nVideo\nFormat                           : MPEG-4 Visual\nCodec ID                         : XviD\nDuration                         : 1h 53mn\nBit rate                         : 746 Kbps\nWidth                            : 608 pixels\nHeight                           : 272 pixels\nDisplay aspect ratio             : 2.25\nFrame rate                       : 25.000 fps\nResolution                       : 8 bits\nColorimetry                      : 4:2:0\nScan type                        : Progressive\nBits/(Pixel*Frame)               : 0.180\nStream size                      : 603 MiB (86%)\n\nAudio\nFormat                           : MPEG Audio\nFormat version                   : Version 1\nFormat profile                   : Layer 3\nCodec ID                         : 55\nCodec ID/Hint                    : MP3\nDuration                         : 1h 53mn\nBit rate mode                    : Constant\nBit rate                         : 112 Kbps\nChannel(s)                       : 2 channels\nSampling rate                    : 44.1 KHz\nResolution                       : 16 bits\nStream size                      : 90.6 MiB (13%)\nWriting library                  : LAME3.97 \nEncoding settings                : CBR\n\n\n\nTrackers:\nhttp://www.torrent-downloads.to:5869/announce\nhttp://open.tracker.thepiratebay.se:80/announce\nhttp://tpb.tracker.thepiratebay.se:80/announce\nhttp://vip.tracker.thepiratebay.se/announce\n\n\nInfo Hash: F926A129A69F03649C7A9C52518B78A91D9B05F0\n\n\nEnjoy, and please seed.","torrent":{"xt":"urn:btih:f926a129a69f03649c7a9c52518b78a91d9b05f0","amp;dn":"Club+Dread+Uncut+%282004%29+-+DVDRip+-+MP3+-+ENG","amp;tr":["udp%3A%2F%2Ftracker.openbittorrent.com%3A80","udp%3A%2F%2Fopen.demonii.com%3A1337","udp%3A%2F%2Ftracker.coppersurfer.tk%3A6969","udp%3A%2F%2Fexodus.desync.com%3A6969"],"infoHash":"f926a129a69f03649c7a9c52518b78a91d9b05f0","infoHashBuffer":{"type":"Buffer","data":[249,38,161,41,166,159,3,100,156,122,156,82,81,139,120,169,29,155,5,240]},"announce":[],"urlList":[]}}